<svg viewBox="0 0 212.5 64.99" xmlns="http://www.w3.org/2000/svg" data-name="Layer 2" id="Layer_2">
  <defs>
    <style>
      .cls-1 {
        fill: #2b2c6b;
      }

      .cls-2 {
        fill-rule: evenodd;
      }

      .cls-2, .cls-3 {
        fill: #e99fbf;
      }
    </style>
  </defs>
  <g data-name="Layer 1" id="Layer_1-2">
    <g>
      <g>
        <path d="m68.77,59.22c1.8-2.86,1.61-5.29,1.61-5.29-15.71,7.79-32.6-7.99-32.92-8.3-4.67-4.83-10.38-11.46-16.48-19.62,0,0,2.28-.02,3.08-.02,3.12-.03,4.69-.03,5.35-.13,2.59-.36,5.17-1.35,7.01-3.23,1.65-1.68,2.58-3.94,3.2-6.21.51-1.86.84-3.82.59-5.73-.59-4.5-4.23-8-8.29-9.63C28.89-.16,25.57-.24,22.38.37c-1.29.24-2.52.67-3.66,1.34-4.71,2.74-6.45,7.95-6.3,13.17.1,3.37.72,6.73.53,10.09-.05.95-.17,1.92-.56,2.79-.47,1.05-1.32,1.93-2.36,2.42-1.12.53-2.49.6-3.59.03-.93-.48-1.59-1.37-2.09-2.29-.55-1.04-1.03-2.14-1.51-3.22-.04-.08-.06-.17-.14-.23-.03-.03-.07-.03-.11,0-.09.07-.12.17-.16.26-1.02,2.21-1.96,4.48-2.31,6.91-.26,1.88-.14,3.85.63,5.58.91,2.06,2.7,3.68,4.81,4.45,2.1.77,4.48.71,6.57-.1,1.07-.41,2.05-1,3.01-1.62.23-.15.47-.3.73-.34.73-.09,1.4,1.28,1.75,1.76.58.81,1.15,1.63,1.7,2.47,1.13,1.7,2.2,3.45,3.22,5.21,2.03,3.5,3.9,7.1,5.76,10.7.22.43.9,2.3,1.39,2.3.5,0,1.52-1.36,1.81-1.73,1.96-2.5.41-5.18-.53-7.73-.41-1.12-.73-2.28-.93-3.46-.06-.37-.52-2.78-.06-2.92.13-.04.21.09.29.16.84.73,1.61,1.53,2.42,2.3.9.86,1.76,1.75,2.67,2.61.99.93,1.99,1.85,3,2.77.89.81,1.8,1.6,2.72,2.38,1.23,1.05,2.49,2.07,3.77,3.06,3.74,2.85,8.07,5.35,12.88,5.5,2.42.08,4.88-.52,6.96-1.71.08-.05.17-.09.25-.14.02-.02.04-.03.06-.05,1.56-.96,2.88-2.25,3.75-3.87Z" class="cls-1"></path>
        <path d="m51.69,53.17c3.11-1.66,6.71-3.81,9.62-5.63-6.23-2.59-6.19-7.29-.35-11.31,4.3-2.68,11.55-.84,15.88,2.86,4.02,4.85-.07,8.22-7.85,10.92-4.42,1.38-9.39,3.21-13.81,4.59-1.16-.48-2.33-.95-3.49-1.43Z" class="cls-2"></path>
        <path d="m41.92,47.03c1.03-1.87,2.18-4.03,2.41-5.7-6.21-.75-9.66-5.74-5.68-10.6,1.03-1.25,1.91-1.8,3.74-2.37,8.26-2.57,18.55.33,14.33,9.2-2.36,4.53-6.5,8.52-10.98,11.88-1.28-.81-2.55-1.61-3.83-2.42Z" class="cls-2"></path>
      </g>
      <path d="m103.58,44.87h-3.1v-22.59h-3.1v22.59h-3.12v-22.59h-3.07v22.59h-3.1v-20.81c0-.97.36-1.88,1.08-2.71.72-.83,1.57-1.25,2.56-1.25h8.02c1.04,0,1.94.38,2.69,1.15.75.77,1.13,1.62,1.13,2.56v21.05Z" class="cls-1"></path>
      <path d="m113.72,41.13c0,.97-.38,1.84-1.14,2.6-.76.76-1.65,1.14-2.68,1.14h-1.83c-.99,0-1.86-.43-2.6-1.29-.69-.81-1.04-1.7-1.04-2.67v-9.36c0-.94.38-1.8,1.15-2.56.77-.77,1.65-1.15,2.64-1.15h1.73c.91,0,1.76.38,2.56,1.14.8.76,1.2,1.67,1.2,2.72v9.44Zm-3.1,1.56v-12.68h-3.1v12.68h3.1Z" class="cls-1"></path>
      <path d="m131.95,44.87h-3.1v-14.86h-3.1v14.86h-3.1v-14.86h-3.1v14.86h-3.1v-14.86h-1.24v-2.18h12.9c1.02,0,1.92.37,2.67,1.11.76.74,1.14,1.61,1.14,2.6v13.33Z" class="cls-1"></path>
      <path d="m143.22,41.15c0,.91-.38,1.75-1.14,2.54-.76.78-1.65,1.18-2.68,1.18h-5.47v-24.77h5.47c1.01,0,1.89.38,2.66,1.15.77.77,1.15,1.62,1.15,2.56v17.34Zm-3.1,1.54v-20.41h-3.1v20.41h3.1Z" class="cls-3"></path>
      <path d="m156.15,44.87h-6.96c-1.01,0-1.89-.39-2.65-1.16-.76-.78-1.14-1.63-1.14-2.55v-4.06c0-.88.43-1.7,1.29-2.48.76-.69,1.6-1.04,2.53-1.04h2.33v-3.57h-4.95c.16-.66.47-1.17.92-1.54.51-.43,1.48-.64,2.9-.64h4.24v14.86h1.51v2.18Zm-4.56-2.18v-6.94h-3.1v6.94h3.1Z" class="cls-3"></path>
      <path d="m168.14,44.87h-6.71c-1.02,0-1.92-.38-2.67-1.14-.76-.76-1.14-1.62-1.14-2.58v-13.33h3.1v14.86h3.1v-14.86h3.1v14.86h1.24v2.18Z" class="cls-3"></path>
      <path d="m179.31,52.6h-5.45c-1.07,0-1.99-.37-2.75-1.11-.71-.68-1.07-1.63-1.07-2.85v-1.51h3.1v3.29h3.07v-5.55h-2.38c-1.01,0-1.88-.39-2.63-1.16-.79-.79-1.18-1.64-1.16-2.55l.02-9.46c0-1.11.38-2.03,1.13-2.76.75-.73,1.62-1.1,2.61-1.1h5.5v24.77Zm-3.1-9.91v-12.68h-3.07v12.68h3.07Z" class="cls-3"></path>
      <path d="m190.9,44.87h-3.1v-14.86h-3.1v14.86h-3.1v-24.72h3.1v7.68h2.38c1.02,0,1.92.38,2.67,1.13.76.75,1.14,1.61,1.14,2.59v13.33Z" class="cls-3"></path>
      <path d="m201.67,44.87h-4.09c-1.02,0-1.92-.38-2.67-1.14-.76-.76-1.14-1.63-1.14-2.6v-11.12h-1.24v-2.18h1.24v-7.73h3.1v7.73h3.1v2.18h-3.1v12.68h4.81v2.18Z" class="cls-3"></path>
      <path d="m212.5,41.15c0,.86-.31,1.65-.94,2.38-.78.91-1.73,1.36-2.87,1.36h-5.47v-4.58h3.1v2.4h3.1v-5.6h-2.18c-1.19,0-2.18-.44-2.97-1.31-.69-.78-1.04-1.72-1.04-2.82v-1.41c0-.96.39-1.82,1.18-2.59.78-.77,1.81-1.15,3.08-1.15h5.03v4.66h-3.1v-2.48h-3.1v4.95h2.43c.96,0,1.82.38,2.6,1.14.78.76,1.16,1.67,1.16,2.72v2.33Z" class="cls-3"></path>
    </g>
  </g>
</svg>